PathFileType	4	(X/Y/Z)	C:/Users/beibeiliu/ov580/test_trc/User3\sequence.9_training_dense_left.trc
DataRate	CameraRate	NumFrames	NumMarkers	Units	OrigDataRate	OrigDataStartFrame	OrigNumFrames
120	120	13	19	mm	120	27	213
Frame#	Time	ThumbCMC			ThumbMCP			ThumbIP			ThumbTip			IndexMCP			IndexPIP			IndexTip			MiddleMCP			MiddlePIP			MiddleTip			RingMCP			RingPIP			RingTip			PinkyMCP			PinkyPIP			PinkyTip			BackHand1			BackHand2			BackHand3	
		X0	Y0	Z0	X1	Y1	Z1	X2	Y2	Z2	X3	Y3	Z3	X4	Y4	Z4	X5	Y5	Z5	X6	Y6	Z6	X7	Y7	Z7	X8	Y8	Z8	X9	Y9	Z9	X10	Y10	Z10	X11	Y11	Z11	X12	Y12	Z12	X13	Y13	Z13	X14	Y14	Z14	X15	Y15	Z15	X16	Y16	Z16	X17	Y17	Z17	X18	Y18	Z18	
26	0.216667	-205.574	7.31763	-2.25715	-175.76	9.46109	-24.5032	-155.932	-3.76358	-43.082	-145.657	-27.0925	-45.7472	-213.483	-19.5515	-71.6593	-205.062	-27.829	-98.4489	-190.268	-28.0636	-119.694	-185.65	-42.5415	-69.8519	-157.288	-28.6981	-70.5661	-158.054	-15.4836	-33.8603	-174.63	-48.3977	-53.2385	-149.695	-34.3674	-38.6599	-165.709	-21.041	-11.1344	-171.169	-63.941	-34.8893	-154.039	-42.5074	-25.4297	-167.408	-31.418	-2.4255	-220.191	-58.0504	-16.8274	-231.594	-53.3463	16.5654	-233.252	-22.0598	-9.23138	
27	0.225	-210.854	5.48195	-0.576662	-181.585	14.6474	-22.2045	-159.061	3.21932	-46.8745	-144.956	-20.5768	-51.3921	-216.023	-21.7674	-69.3714	-209.341	-22.2597	-101.585	-193.265	-26.9637	-120.592	-189.484	-35.6767	-72.4001	-158.387	-27.2155	-70.5512	-163.408	-9.97119	-32.0549	-177.227	-48.7732	-52.2462	-151.959	-31.6334	-39.2538	-163.405	-20.7524	-13.0333	-171.554	-61.9438	-35.9372	-154.9	-42.2226	-29.4716	-169.234	-29.4019	-4.94324	-222.746	-52.3563	-15.6009	-230.596	-52.1324	16.3142	-235.334	-23.8713	-10.9108	
28	0.233333	-214.5	10.4172	-3.21237	-187.469	14.2339	-20.6154	-164.532	6.83361	-43.0439	-150.197	-13.4444	-49.1874	-219.979	-19.5848	-72.3211	-212.736	-22.2229	-98.8095	-194.088	-23.304	-124.895	-195.312	-32.439	-70.0828	-161.693	-20.3063	-71.7158	-163.056	-10.4997	-36.9903	-178.018	-42.8324	-54.0618	-154.477	-25.7333	-42.7958	-166.23	-15.3746	-15.7381	-175.437	-55.992	-37.9674	-155.481	-37.1544	-27.1327	-171.067	-25.4324	-3.98981	-223.491	-55.5539	-18.413	-234.294	-49.4382	16.2185	-240.422	-22.7195	-8.68546	
29	0.241667	-216.82	11.8584	1.05919	-189.596	15.1102	-22.2356	-165.742	14.1895	-43.7326	-149.167	-9.56401	-51.14	-221.882	-17.9564	-69.4762	-216.092	-17.8819	-99.8349	-197.887	-14.8602	-124.679	-194.341	-34.3438	-71.4526	-164.141	-19.814	-72.5526	-168.024	-5.51569	-33.9271	-180.773	-40.1686	-53.8836	-156.738	-24.9884	-43.162	-167.761	-16.2106	-13.8523	-177.182	-51.7989	-38.058	-156.872	-32.9313	-28.0758	-174.148	-21.9666	-5.97968	-226.983	-48.6153	-15.502	-233.709	-46.8082	13.2854	-242.335	-19.4439	-8.43828	
30	0.25	-217.338	9.50371	-1.32346	-190.187	19.6822	-24.4652	-169.126	11.7394	-40.6219	-153.603	-10.7886	-49.961	-225.367	-12.9214	-73.8804	-216.856	-17.3802	-97.963	-193.56	-14.3127	-122.62	-197.435	-32.17	-69.1627	-165.047	-19.4689	-72.7706	-167.367	-7.11646	-37.1432	-180.775	-39.0376	-55.7694	-156.514	-25.0412	-41.2871	-172.132	-11.0631	-16.3059	-175.395	-50.9107	-38.7513	-157.506	-34.3732	-28.9674	-175.938	-20.6665	-3.42971	-226.73	-52.5519	-18.2046	-234.544	-48.0022	14.4312	-242.559	-20.1597	-9.07757	
31	0.258333	-219.201	12.7725	1.37096	-191.001	23.1216	-23.1567	-172.038	14.674	-41.7036	-153.785	-5.6996	-53.4052	-225.838	-14.5422	-71.9468	-218.002	-13.0809	-99.5733	-192.075	-7.21926	-117.568	-197.865	-27.7085	-73.7831	-168.491	-14.7758	-74.2749	-170.727	-1.1041	-36.989	-183.136	-39.1357	-53.4403	-159.492	-23.4718	-47.1352	-172.15	-10.8668	-16.9566	-177.785	-51.9909	-37.429	-156.845	-32.2067	-28.3318	-171.434	-21.4209	-6.84603	-228.085	-49.2921	-16.9997	-235.13	-44.1756	15.2852	-243.1	-14.0939	-9.78811	
32	0.266667	-218.837	14.7128	0.687582	-193.38	23.4729	-21.8875	-171.298	18.3541	-44.1832	-158.374	-6.19392	-51.7859	-228.417	-8.8321	-67.3905	-216.19	-12.7603	-99.3185	-186.795	-4.7858	-108.764	-201.744	-27.5926	-70.8179	-170.952	-15.8213	-78.1113	-171.545	-1.02607	-40.6403	-186.826	-35.1287	-56.2084	-159.875	-23.1433	-48.6984	-171.22	-11.42	-18.7186	-177.434	-50.0522	-38.9473	-160.246	-28.9417	-32.4957	-175.329	-19.5218	-6.48711	-228.352	-48.0024	-17.6798	-235.405	-42.3485	15.3374	-240.988	-17.2158	-6.58482	
33	0.275	-219.568	18.823	1.588	-193.013	24.566	-23.9967	-171.521	15.9235	-48.6293	-159.95	-5.08639	-53.0983	-226.74	-11.8518	-67.091	-213.461	-13.802	-97.8341	-182.858	-0.677977	-97.6813	-203.041	-24.8892	-73.8049	-173.616	-15.6697	-79.3957	-170.87	-1.65583	-43.5231	-186.163	-32.9578	-57.1863	-161.617	-21.9432	-48.2955	-174.43	-11.329	-17.2726	-176.118	-47.6059	-41.6106	-161.784	-28.0922	-31.4051	-172.625	-20.4735	-4.58057	-230.631	-43.2682	-18.2816	-236.234	-42.0987	11.2529	-243.564	-15.4397	-8.11152	
34	0.283333	-218.731	17.819	2.36849	-192.148	26.4098	-22.4706	-173.726	17.809	-45.1324	-161.961	-6.4568	-53.6139	-227.802	-8.36807	-66.939	-208.291	-10.6447	-97.3043	-182.474	0.14462	-91.7926	-204.498	-24.4064	-75.1537	-173.193	-15.3349	-77.6766	-174.468	-2.25313	-39.7824	-187.511	-35.4939	-56.2331	-161.707	-17.9727	-47.1722	-175.951	-10.6175	-16.4962	-181.439	-48.8503	-38.4215	-161.717	-27.083	-29.8438	-177.113	-17.7494	-5.80034	-231.265	-41.8797	-17.49	-236.852	-40.9177	16.0513	-242.773	-14.5812	-7.28082	
35	0.291667	-217.092	20.5526	4.08584	-192.121	24.4852	-24.9182	-174.45	16.5908	-44.8838	-161.758	-6.48115	-52.8501	-229.04	-6.56082	-68.6292	-209.478	-4.99867	-98.7647	-183.145	3.4707	-90.4676	-202.995	-26.8551	-74.3788	-173.904	-13.1084	-78.0925	-172.957	-0.0992919	-41.116	-186.863	-35.2055	-55.9626	-160.987	-18.7216	-45.325	-174.373	-9.74934	-18.2491	-177.979	-46.2451	-42.097	-161.705	-26.3559	-29.1471	-175.059	-20.5142	-5.32044	-230.939	-43.7805	-19.1263	-237.261	-42.0097	14.1134	-241.298	-11.8679	-5.09095	
36	0.3	-216.545	21.0061	4.01258	-191.591	23.7714	-23.2193	-173.225	17.5976	-43.7921	-157.421	-4.55607	-56.9902	-226.92	-8.62398	-67.2777	-215.057	-9.54375	-96.659	-183.207	-0.184124	-94.638	-204.864	-24.1948	-72.3371	-174.984	-13.0011	-80.5185	-169.798	-4.57959	-41.8545	-188.681	-35.0151	-54.661	-162.032	-21.5558	-48.5065	-176.747	-8.82386	-16.6291	-179.51	-44.3474	-41.9171	-162.952	-27.4015	-31.5406	-176.601	-20.5672	-4.22583	-229.695	-44.3215	-15.1578	-237.398	-40.9103	12.956	-240.835	-11.4226	-5.28738	
37	0.308333	-215.547	19.0975	2.78904	-190.834	24.1885	-23.7812	-171.921	18.867	-42.4391	-156.576	-2.89296	-55.8374	-227.353	-7.93698	-70.579	-215.572	-6.93733	-99.2199	-185.919	3.26804	-103.419	-203.709	-25.0393	-69.8006	-172.899	-14.9858	-78.1492	-169.187	-5.17475	-41.4294	-187.477	-35.9905	-54.5223	-160.655	-18.2814	-46.2644	-174.652	-11.8352	-14.0683	-182.384	-49.5835	-39.716	-160.16	-31.7067	-31.5543	-171.69	-17.5352	-9.59599	-231.222	-39.042	-14.1091	-236.505	-43.2607	14.8409	-242.092	-7.52624	-7.59117	
38	0.316667	-215.39	17.9758	3.99695	-188.309	28.0984	-20.91	-168.936	20.7001	-43.9644	-157.192	-2.30446	-50.4826	-226.85	-3.16889	-66.1288	-218.546	-0.738852	-99.8921	-190.536	0.838055	-111.919	-204.262	-19.2929	-71.3589	-171.273	-13.0557	-76.996	-169.923	-3.77588	-37.3297	-186.832	-31.2873	-56.4404	-159.487	-19.6485	-47.4873	-170.122	-10.0519	-16.8724	-180.459	-45.8354	-41.1592	-158.617	-32.189	-32.1429	-172.449	-18.4074	-4.5771	-228.391	-41.1011	-14.0952	-237.024	-37.2915	13.4368	-242.71	-6.52391	-6.51316	
